<svg xmlns="http://www.w3.org/2000/svg" viewBox="0 0 900 200" fill="none">
  <defs>
    <!-- Rope gradient -->
    <linearGradient id="ropeGrad" x1="0%" y1="0%" x2="100%" y2="0%">
      <stop offset="0%" stop-color="#6f8aff"/>
      <stop offset="20%" stop-color="#8b5cf6"/>
      <stop offset="40%" stop-color="#6f8aff"/>
      <stop offset="60%" stop-color="#8b5cf6"/>
      <stop offset="80%" stop-color="#6f8aff"/>
      <stop offset="100%" stop-color="#8b5cf6"/>
    </linearGradient>
    <!-- Background glow -->
    <radialGradient id="bgGlow" cx="50%" cy="50%" r="50%">
      <stop offset="0%" stop-color="#6f8aff" stop-opacity="0.1"/>
      <stop offset="100%" stop-color="#6f8aff" stop-opacity="0"/>
    </radialGradient>
    <!-- Text glow -->
    <filter id="textGlow" x="-10%" y="-20%" width="120%" height="140%">
      <feGaussianBlur in="SourceAlpha" stdDeviation="4" result="blur"/>
      <feFlood flood-color="#6f8aff" flood-opacity="0.35"/>
      <feComposite in2="blur" operator="in"/>
      <feMerge>
        <feMergeNode/>
        <feMergeNode in="SourceGraphic"/>
      </feMerge>
    </filter>
    <!-- Rope texture -->
    <pattern id="ropeTexture" patternUnits="userSpaceOnUse" width="10" height="10" patternTransform="rotate(35)">
      <line x1="0" y1="0" x2="10" y2="10" stroke="#a5b4fc" stroke-width="0.6" stroke-opacity="0.3"/>
      <line x1="3" y1="0" x2="13" y2="10" stroke="#c4b5fd" stroke-width="0.3" stroke-opacity="0.2"/>
    </pattern>
    <!-- Rope shadow filter -->
    <filter id="ropeShadow" x="-5%" y="-5%" width="110%" height="120%">
      <feDropShadow dx="0" dy="2" stdDeviation="2" flood-color="#0c0a1a" flood-opacity="0.6"/>
    </filter>

    <!--
      WEAVING STRATEGY:
      The rope path snakes across the text in a sine wave.
      We split it into segments. At each letter boundary, the rope
      alternates between being BEHIND and IN FRONT of the text.

      Layer order for weaving:
      1. Rope segments that go BEHIND the text
      2. The text itself
      3. Rope segments that go IN FRONT of the text

      The rope goes:
        - BEHIND the P (enters from left, dips behind)
        - IN FRONT between P-A
        - BEHIND the A
        - IN FRONT between A-R
        - BEHIND the R
        - IN FRONT between R-A
        - BEHIND the second A
        - IN FRONT between A-C
        - BEHIND the C
        - IN FRONT between C-O
        - BEHIND the O (threads through the hole)
        - IN FRONT between O-R
        - BEHIND the R
        - IN FRONT between R-D
        - Exits behind D
    -->

    <!-- Full rope path definition (used by all rope layers) -->
    <!-- The rope weaves sinusoidally, centered on y=105 (text baseline area) -->

    <!-- Clip paths for rope weaving through text -->
    <!-- Letter approximate x-positions at font-size 88, centered at x=450:
         P: 187-242, A: 252-312, R: 322-377, A: 387-447,
         C: 457-507, O: 517-577, R: 587-642, D: 652-712
    -->
    <clipPath id="behindLetters">
      <!-- Covers letter regions where rope goes behind -->
      <rect x="182" y="0" width="65" height="200"/>   <!-- P -->
      <rect x="317" y="0" width="65" height="200"/>   <!-- R1 -->
      <rect x="452" y="0" width="60" height="200"/>   <!-- C -->
      <rect x="582" y="0" width="60" height="200"/>   <!-- R2 -->
      <rect x="652" y="0" width="65" height="200"/>   <!-- D -->
    </clipPath>
    <clipPath id="inFrontOfLetters">
      <!-- Covers regions between/over letters where rope is in front -->
      <rect x="0" y="0" width="182" height="200"/>    <!-- before P -->
      <rect x="247" y="0" width="70" height="200"/>   <!-- A1 -->
      <rect x="382" y="0" width="70" height="200"/>   <!-- A2 -->
      <rect x="512" y="0" width="70" height="200"/>   <!-- O -->
      <rect x="642" y="0" width="10" height="200"/>   <!-- between R2-D -->
      <rect x="717" y="0" width="183" height="200"/>  <!-- after D -->
    </clipPath>
  </defs>

  <!-- Background -->
  <rect width="900" height="200" fill="#0c0a1a" rx="16"/>
  <rect width="900" height="200" fill="url(#bgGlow)" rx="16"/>

  <!-- Subtle dot grid -->
  <g opacity="0.035">
    <circle cx="50" cy="50" r="1" fill="#fff"/><circle cx="100" cy="50" r="1" fill="#fff"/>
    <circle cx="150" cy="50" r="1" fill="#fff"/><circle cx="200" cy="50" r="1" fill="#fff"/>
    <circle cx="250" cy="50" r="1" fill="#fff"/><circle cx="300" cy="50" r="1" fill="#fff"/>
    <circle cx="350" cy="50" r="1" fill="#fff"/><circle cx="400" cy="50" r="1" fill="#fff"/>
    <circle cx="450" cy="50" r="1" fill="#fff"/><circle cx="500" cy="50" r="1" fill="#fff"/>
    <circle cx="550" cy="50" r="1" fill="#fff"/><circle cx="600" cy="50" r="1" fill="#fff"/>
    <circle cx="650" cy="50" r="1" fill="#fff"/><circle cx="700" cy="50" r="1" fill="#fff"/>
    <circle cx="750" cy="50" r="1" fill="#fff"/><circle cx="800" cy="50" r="1" fill="#fff"/>
    <circle cx="850" cy="50" r="1" fill="#fff"/>
    <circle cx="50" cy="100" r="1" fill="#fff"/><circle cx="100" cy="100" r="1" fill="#fff"/>
    <circle cx="150" cy="100" r="1" fill="#fff"/><circle cx="200" cy="100" r="1" fill="#fff"/>
    <circle cx="250" cy="100" r="1" fill="#fff"/><circle cx="300" cy="100" r="1" fill="#fff"/>
    <circle cx="350" cy="100" r="1" fill="#fff"/><circle cx="400" cy="100" r="1" fill="#fff"/>
    <circle cx="450" cy="100" r="1" fill="#fff"/><circle cx="500" cy="100" r="1" fill="#fff"/>
    <circle cx="550" cy="100" r="1" fill="#fff"/><circle cx="600" cy="100" r="1" fill="#fff"/>
    <circle cx="650" cy="100" r="1" fill="#fff"/><circle cx="700" cy="100" r="1" fill="#fff"/>
    <circle cx="750" cy="100" r="1" fill="#fff"/><circle cx="800" cy="100" r="1" fill="#fff"/>
    <circle cx="850" cy="100" r="1" fill="#fff"/>
    <circle cx="50" cy="150" r="1" fill="#fff"/><circle cx="100" cy="150" r="1" fill="#fff"/>
    <circle cx="150" cy="150" r="1" fill="#fff"/><circle cx="200" cy="150" r="1" fill="#fff"/>
    <circle cx="250" cy="150" r="1" fill="#fff"/><circle cx="300" cy="150" r="1" fill="#fff"/>
    <circle cx="350" cy="150" r="1" fill="#fff"/><circle cx="400" cy="150" r="1" fill="#fff"/>
    <circle cx="450" cy="150" r="1" fill="#fff"/><circle cx="500" cy="150" r="1" fill="#fff"/>
    <circle cx="550" cy="150" r="1" fill="#fff"/><circle cx="600" cy="150" r="1" fill="#fff"/>
    <circle cx="650" cy="150" r="1" fill="#fff"/><circle cx="700" cy="150" r="1" fill="#fff"/>
    <circle cx="750" cy="150" r="1" fill="#fff"/><circle cx="800" cy="150" r="1" fill="#fff"/>
    <circle cx="850" cy="150" r="1" fill="#fff"/>
  </g>

  <!-- ============================================================ -->
  <!-- LAYER 1: Rope segments that go BEHIND the text               -->
  <!-- ============================================================ -->
  <g clip-path="url(#behindLetters)">
    <!-- Shadow -->
    <path d="
      M 15,108
      C 50,78 80,62 130,70
      C 165,76 185,100 215,115
      C 245,130 275,118 310,92
      C 340,68 365,58 400,68
      C 430,76 450,100 480,115
      C 510,130 540,115 570,88
      C 600,62 625,55 660,68
      C 690,78 710,100 740,112
      C 765,122 790,108 820,82
      C 842,64 860,62 890,75
    " stroke="#0c0a1a" stroke-width="14" stroke-linecap="round" fill="none" opacity="0.5"/>
    <!-- Main rope -->
    <path d="
      M 15,108
      C 50,78 80,62 130,70
      C 165,76 185,100 215,115
      C 245,130 275,118 310,92
      C 340,68 365,58 400,68
      C 430,76 450,100 480,115
      C 510,130 540,115 570,88
      C 600,62 625,55 660,68
      C 690,78 710,100 740,112
      C 765,122 790,108 820,82
      C 842,64 860,62 890,75
    " stroke="url(#ropeGrad)" stroke-width="10" stroke-linecap="round" fill="none"/>
    <!-- Texture -->
    <path d="
      M 15,108
      C 50,78 80,62 130,70
      C 165,76 185,100 215,115
      C 245,130 275,118 310,92
      C 340,68 365,58 400,68
      C 430,76 450,100 480,115
      C 510,130 540,115 570,88
      C 600,62 625,55 660,68
      C 690,78 710,100 740,112
      C 765,122 790,108 820,82
      C 842,64 860,62 890,75
    " stroke="url(#ropeTexture)" stroke-width="10" stroke-linecap="round" fill="none" opacity="0.5"/>
    <!-- Highlight -->
    <path d="
      M 15,104
      C 50,74 80,58 130,66
      C 165,72 185,96 215,111
      C 245,126 275,114 310,88
      C 340,64 365,54 400,64
      C 430,72 450,96 480,111
      C 510,126 540,111 570,84
      C 600,58 625,51 660,64
      C 690,74 710,96 740,108
      C 765,118 790,104 820,78
      C 842,60 860,58 890,71
    " stroke="#a5b4fc" stroke-width="2" stroke-linecap="round" fill="none" opacity="0.4"/>
    <!-- Second strand -->
    <path d="
      M 10,113
      C 45,83 78,68 128,75
      C 163,81 188,105 218,120
      C 248,134 278,122 313,96
      C 343,72 368,63 403,72
      C 433,80 453,105 483,120
      C 513,134 543,120 573,93
      C 603,67 628,60 663,72
      C 693,82 713,105 743,117
      C 768,126 793,113 823,87
      C 845,69 863,67 893,79
    " stroke="#7c3aed" stroke-width="5" stroke-linecap="round" fill="none" opacity="0.4"/>
  </g>

  <!-- ============================================================ -->
  <!-- LAYER 2: The text itself                                     -->
  <!-- ============================================================ -->
  <text x="450" y="125" text-anchor="middle" font-family="'Segoe UI', 'Helvetica Neue', Arial, sans-serif" font-size="88" font-weight="800" letter-spacing="10" fill="#e8e6f0" filter="url(#textGlow)">PARACORD</text>

  <!-- ============================================================ -->
  <!-- LAYER 3: Rope segments that go IN FRONT of the text          -->
  <!-- ============================================================ -->
  <g clip-path="url(#inFrontOfLetters)" filter="url(#ropeShadow)">
    <!-- Main rope -->
    <path d="
      M 15,108
      C 50,78 80,62 130,70
      C 165,76 185,100 215,115
      C 245,130 275,118 310,92
      C 340,68 365,58 400,68
      C 430,76 450,100 480,115
      C 510,130 540,115 570,88
      C 600,62 625,55 660,68
      C 690,78 710,100 740,112
      C 765,122 790,108 820,82
      C 842,64 860,62 890,75
    " stroke="url(#ropeGrad)" stroke-width="10" stroke-linecap="round" fill="none"/>
    <!-- Texture -->
    <path d="
      M 15,108
      C 50,78 80,62 130,70
      C 165,76 185,100 215,115
      C 245,130 275,118 310,92
      C 340,68 365,58 400,68
      C 430,76 450,100 480,115
      C 510,130 540,115 570,88
      C 600,62 625,55 660,68
      C 690,78 710,100 740,112
      C 765,122 790,108 820,82
      C 842,64 860,62 890,75
    " stroke="url(#ropeTexture)" stroke-width="10" stroke-linecap="round" fill="none" opacity="0.5"/>
    <!-- Highlight -->
    <path d="
      M 15,104
      C 50,74 80,58 130,66
      C 165,72 185,96 215,111
      C 245,126 275,114 310,88
      C 340,64 365,54 400,64
      C 430,72 450,96 480,111
      C 510,126 540,111 570,84
      C 600,58 625,51 660,64
      C 690,74 710,96 740,108
      C 765,118 790,104 820,78
      C 842,60 860,58 890,71
    " stroke="#a5b4fc" stroke-width="2" stroke-linecap="round" fill="none" opacity="0.45"/>
    <!-- Second strand -->
    <path d="
      M 10,113
      C 45,83 78,68 128,75
      C 163,81 188,105 218,120
      C 248,134 278,122 313,96
      C 343,72 368,63 403,72
      C 433,80 453,105 483,120
      C 513,134 543,120 573,93
      C 603,67 628,60 663,72
      C 693,82 713,105 743,117
      C 768,126 793,113 823,87
      C 845,69 863,67 893,79
    " stroke="#7c3aed" stroke-width="5" stroke-linecap="round" fill="none" opacity="0.4"/>
  </g>

  <!-- Frayed end (left, in front) -->
  <g opacity="0.7">
    <line x1="15" y1="108" x2="2" y2="116" stroke="#6f8aff" stroke-width="2" stroke-linecap="round"/>
    <line x1="15" y1="108" x2="4" y2="100" stroke="#8b5cf6" stroke-width="2" stroke-linecap="round"/>
    <line x1="15" y1="108" x2="6" y2="109" stroke="#a5b4fc" stroke-width="1.5" stroke-linecap="round"/>
  </g>

  <!-- Frayed end (right) -->
  <g opacity="0.7">
    <line x1="890" y1="75" x2="898" y2="82" stroke="#6f8aff" stroke-width="2" stroke-linecap="round"/>
    <line x1="890" y1="75" x2="897" y2="68" stroke="#8b5cf6" stroke-width="2" stroke-linecap="round"/>
    <line x1="890" y1="75" x2="896" y2="76" stroke="#a5b4fc" stroke-width="1.5" stroke-linecap="round"/>
  </g>

  <!-- Subtle border -->
  <rect x="0.5" y="0.5" width="899" height="199" rx="16" fill="none" stroke="#6f8aff" stroke-opacity="0.1"/>
</svg>